<svg width="135" height="60" viewBox="0 0 135 60" fill="none" xmlns="http://www.w3.org/2000/svg">
<rect x="3.48291" y="30" width="37.5" height="37.5" rx="18.75" transform="rotate(-45 3.48291 30)" fill="#282828"/>
<circle cx="29.6255" cy="9.375" r="9.375" fill="white"/>
<circle cx="50.625" cy="29.6255" r="9.375" fill="white"/>
<circle cx="30.3745" cy="50.625" r="9.375" fill="white"/>
<circle cx="9.375" cy="29.6255" r="9.375" fill="white"/>
<circle cx="30" cy="52.5" r="3.75" fill="#282828"/>
<circle cx="30" cy="11.25" r="3.75" fill="#282828"/>
<circle cx="11.25" cy="30" r="3.75" fill="#282828"/>
<circle cx="48.75" cy="30" r="3.75" fill="#282828"/>
<path d="M83.872 26.432C83.872 27.328 83.656 28.168 83.224 28.952C82.808 29.736 82.144 30.368 81.232 30.848C80.336 31.328 79.2 31.568 77.824 31.568H75.016V38H71.656V21.248H77.824C79.12 21.248 80.224 21.472 81.136 21.92C82.048 22.368 82.728 22.984 83.176 23.768C83.64 24.552 83.872 25.44 83.872 26.432ZM77.68 28.856C78.608 28.856 79.296 28.648 79.744 28.232C80.192 27.8 80.416 27.2 80.416 26.432C80.416 24.8 79.504 23.984 77.68 23.984H75.016V28.856H77.68ZM89.6176 26.768C90.0496 26.064 90.6096 25.512 91.2976 25.112C92.0016 24.712 92.8016 24.512 93.6976 24.512V28.04H92.8096C91.7536 28.04 90.9536 28.288 90.4096 28.784C89.8816 29.28 89.6176 30.144 89.6176 31.376V38H86.2576V24.704H89.6176V26.768ZM101.865 38.216C100.585 38.216 99.4327 37.936 98.4087 37.376C97.3847 36.8 96.5767 35.992 95.9847 34.952C95.4087 33.912 95.1207 32.712 95.1207 31.352C95.1207 29.992 95.4167 28.792 96.0087 27.752C96.6167 26.712 97.4407 25.912 98.4807 25.352C99.5207 24.776 100.681 24.488 101.961 24.488C103.241 24.488 104.401 24.776 105.441 25.352C106.481 25.912 107.297 26.712 107.889 27.752C108.497 28.792 108.801 29.992 108.801 31.352C108.801 32.712 108.489 33.912 107.865 34.952C107.257 35.992 106.425 36.8 105.369 37.376C104.329 37.936 103.161 38.216 101.865 38.216ZM101.865 35.288C102.473 35.288 103.041 35.144 103.569 34.856C104.113 34.552 104.545 34.104 104.865 33.512C105.185 32.92 105.345 32.2 105.345 31.352C105.345 30.088 105.009 29.12 104.337 28.448C103.681 27.76 102.873 27.416 101.913 27.416C100.953 27.416 100.145 27.76 99.4887 28.448C98.8487 29.12 98.5287 30.088 98.5287 31.352C98.5287 32.616 98.8407 33.592 99.4647 34.28C100.105 34.952 100.905 35.288 101.865 35.288ZM115.177 27.464V33.896C115.177 34.344 115.281 34.672 115.489 34.88C115.713 35.072 116.081 35.168 116.593 35.168H118.153V38H116.041C113.209 38 111.793 36.624 111.793 33.872V27.464H110.209V24.704H111.793V21.416H115.177V24.704H118.153V27.464H115.177ZM126.474 38.216C125.194 38.216 124.042 37.936 123.018 37.376C121.994 36.8 121.186 35.992 120.594 34.952C120.018 33.912 119.73 32.712 119.73 31.352C119.73 29.992 120.026 28.792 120.618 27.752C121.226 26.712 122.05 25.912 123.09 25.352C124.13 24.776 125.29 24.488 126.57 24.488C127.85 24.488 129.01 24.776 130.05 25.352C131.09 25.912 131.906 26.712 132.498 27.752C133.106 28.792 133.41 29.992 133.41 31.352C133.41 32.712 133.098 33.912 132.474 34.952C131.866 35.992 131.034 36.8 129.978 37.376C128.938 37.936 127.77 38.216 126.474 38.216ZM126.474 35.288C127.082 35.288 127.65 35.144 128.178 34.856C128.722 34.552 129.154 34.104 129.474 33.512C129.794 32.92 129.954 32.2 129.954 31.352C129.954 30.088 129.618 29.12 128.946 28.448C128.29 27.76 127.482 27.416 126.522 27.416C125.562 27.416 124.754 27.76 124.098 28.448C123.458 29.12 123.138 30.088 123.138 31.352C123.138 32.616 123.45 33.592 124.074 34.28C124.714 34.952 125.514 35.288 126.474 35.288Z" fill="#282828"/>
</svg>
