<svg width="100" height="100" viewBox="0 0 100 100" fill="none" xmlns="http://www.w3.org/2000/svg">
<g clip-path="url(#clip0_8_632)">
<mask id="mask0_8_632" style="mask-type:luminance" maskUnits="userSpaceOnUse" x="0" y="0" width="100" height="100">
<path d="M100 0H0V100H100V0Z" fill="white"/>
</mask>
<g mask="url(#mask0_8_632)">
<path d="M100 0H0V100H100V0Z" fill="white"/>
<path d="M67.6775 17.3223C57.9144 7.55922 42.0853 7.55922 32.3222 17.3223C22.5591 27.0854 22.5591 42.9146 32.3222 52.6777C42.0853 62.4408 57.9144 62.4408 67.6775 52.6777C77.4406 42.9146 77.4406 27.0854 67.6775 17.3223Z" fill="#282828"/>
<path d="M49.5 20C56.4036 20 62 14.4036 62 7.5C62 0.596441 56.4036 -5 49.5 -5C42.5964 -5 37 0.596441 37 7.5C37 14.4036 42.5964 20 49.5 20Z" fill="white"/>
<path d="M77.5 47C84.4036 47 90 41.4036 90 34.5C90 27.5964 84.4036 22 77.5 22C70.5964 22 65 27.5964 65 34.5C65 41.4036 70.5964 47 77.5 47Z" fill="white"/>
<path d="M50.5 75C57.4036 75 63 69.4036 63 62.5C63 55.5964 57.4036 50 50.5 50C43.5964 50 38 55.5964 38 62.5C38 69.4036 43.5964 75 50.5 75Z" fill="white"/>
<path d="M22.5 47C29.4036 47 35 41.4036 35 34.5C35 27.5964 29.4036 22 22.5 22C15.5964 22 10 27.5964 10 34.5C10 41.4036 15.5964 47 22.5 47Z" fill="white"/>
<path d="M50 70C52.7614 70 55 67.7614 55 65C55 62.2386 52.7614 60 50 60C47.2386 60 45 62.2386 45 65C45 67.7614 47.2386 70 50 70Z" fill="#282828"/>
<path d="M50 15C52.7614 15 55 12.7614 55 10C55 7.23858 52.7614 5 50 5C47.2386 5 45 7.23858 45 10C45 12.7614 47.2386 15 50 15Z" fill="#282828"/>
<path d="M25 40C27.7614 40 30 37.7614 30 35C30 32.2386 27.7614 30 25 30C22.2386 30 20 32.2386 20 35C20 37.7614 22.2386 40 25 40Z" fill="#282828"/>
<path d="M75 40C77.7614 40 80 37.7614 80 35C80 32.2386 77.7614 30 75 30C72.2386 30 70 32.2386 70 35C70 37.7614 72.2386 40 75 40Z" fill="#282828"/>
<path d="M30.8722 84.432C30.8722 85.328 30.6563 86.168 30.2243 86.952C29.8083 87.736 29.1443 88.368 28.2323 88.848C27.3363 89.328 26.2002 89.568 24.8242 89.568H22.0163V96H18.6562V79.248H24.8242C26.1202 79.248 27.2242 79.472 28.1362 79.92C29.0482 80.368 29.7283 80.984 30.1763 81.768C30.6403 82.552 30.8722 83.44 30.8722 84.432ZM24.6803 86.856C25.6083 86.856 26.2962 86.648 26.7442 86.232C27.1922 85.8 27.4163 85.2 27.4163 84.432C27.4163 82.8 26.5043 81.984 24.6803 81.984H22.0163V86.856H24.6803ZM36.6178 84.768C37.0498 84.064 37.6098 83.512 38.2978 83.112C39.0018 82.712 39.8019 82.512 40.6979 82.512V86.04H39.8099C38.7539 86.04 37.9538 86.288 37.4098 86.784C36.8818 87.28 36.6178 88.144 36.6178 89.376V96H33.2578V82.704H36.6178V84.768ZM48.865 96.216C47.585 96.216 46.4329 95.936 45.4089 95.376C44.3849 94.8 43.5769 93.992 42.9849 92.952C42.4089 91.912 42.121 90.712 42.121 89.352C42.121 87.992 42.417 86.792 43.009 85.752C43.617 84.712 44.441 83.912 45.481 83.352C46.521 82.776 47.681 82.488 48.961 82.488C50.241 82.488 51.4009 82.776 52.4409 83.352C53.4809 83.912 54.2969 84.712 54.8889 85.752C55.4969 86.792 55.8009 87.992 55.8009 89.352C55.8009 90.712 55.489 91.912 54.865 92.952C54.257 93.992 53.4249 94.8 52.3689 95.376C51.3289 95.936 50.161 96.216 48.865 96.216ZM48.865 93.288C49.473 93.288 50.0409 93.144 50.5689 92.856C51.1129 92.552 51.545 92.104 51.865 91.512C52.185 90.92 52.3449 90.2 52.3449 89.352C52.3449 88.088 52.009 87.12 51.337 86.448C50.681 85.76 49.873 85.416 48.913 85.416C47.953 85.416 47.145 85.76 46.489 86.448C45.849 87.12 45.529 88.088 45.529 89.352C45.529 90.616 45.8409 91.592 46.4649 92.28C47.1049 92.952 47.905 93.288 48.865 93.288ZM62.1777 85.464V91.896C62.1777 92.344 62.2816 92.672 62.4896 92.88C62.7136 93.072 63.0817 93.168 63.5937 93.168H65.1536V96H63.0416C60.2096 96 58.7936 94.624 58.7936 91.872V85.464H57.2096V82.704H58.7936V79.416H62.1777V82.704H65.1536V85.464H62.1777ZM73.4743 96.216C72.1944 96.216 71.0423 95.936 70.0183 95.376C68.9943 94.8 68.1864 93.992 67.5944 92.952C67.0184 91.912 66.7304 90.712 66.7304 89.352C66.7304 87.992 67.0264 86.792 67.6184 85.752C68.2264 84.712 69.0504 83.912 70.0904 83.352C71.1304 82.776 72.2904 82.488 73.5704 82.488C74.8504 82.488 76.0104 82.776 77.0504 83.352C78.0904 83.912 78.9064 84.712 79.4984 85.752C80.1064 86.792 80.4104 87.992 80.4104 89.352C80.4104 90.712 80.0983 91.912 79.4743 92.952C78.8663 93.992 78.0344 94.8 76.9784 95.376C75.9384 95.936 74.7703 96.216 73.4743 96.216ZM73.4743 93.288C74.0823 93.288 74.6504 93.144 75.1784 92.856C75.7224 92.552 76.1543 92.104 76.4743 91.512C76.7943 90.92 76.9544 90.2 76.9544 89.352C76.9544 88.088 76.6184 87.12 75.9464 86.448C75.2904 85.76 74.4824 85.416 73.5224 85.416C72.5624 85.416 71.7544 85.76 71.0984 86.448C70.4584 87.12 70.1384 88.088 70.1384 89.352C70.1384 90.616 70.4503 91.592 71.0743 92.28C71.7143 92.952 72.5143 93.288 73.4743 93.288Z" fill="#282828"/>
</g>
</g>
<defs>
<clipPath id="clip0_8_632">
<rect width="100" height="100" fill="white"/>
</clipPath>
</defs>
</svg>
